# xmcd CD database file
# Copyright (C) 1996 Ti Kan
#
# Track frame offsets:
# 	150
# 	14650
# 	38325
# 	56275
# 	66975
# 	83300
# 	94325
# 	108350
# 	121225
# 	133800
# 	151375
# 	164625
# 	179325
# 	199300
# 	210000
# 	233450
# 	246300
# 	263675
# 	282400
# 	298675
# 	309275
#
# Disc length: 4361 seconds
#
# Revision: 1
# Processed by: cddbd v1.4b41PL1 Copyright (c) Steve Scherf et al.
# Submitted via: DiscPlay 3.4.1
#
DISCID=1e110715
DTITLE=St. Louis Kings of Rhythm - Rhythm and Blues Showtime with St. Louis Kin
DTITLE=gs of Rhythm of Ike and Tina Turner Fame
DYEAR=1900
DGENRE=
TTITLE0=The Big Question
TTITLE1=Clayton's Blues Mixture
TTITLE2=Limited Love
TTITLE3=Just Like A Woman
TTITLE4=Mistreated Blues
TTITLE5=Bring Your Fine Frame home
TTITLE6=Chicken Shack
TTITLE7=Just One More Time
TTITLE8=Peg Leg Woman
TTITLE9=B Flat Blues
TTITLE10=I'm Tore Up
TTITLE11=Good Thing
TTITLE12=Consider Yourself
TTITLE13=Sweet Soul Music
TTITLE14=Change Gonna Come
TTITLE15=Philly Dog
TTITLE16=Respect Yourself
TTITLE17=I Can't Stand the Rain
TTITLE18=Breaking Up Somebody's Home
TTITLE19=Prancin'
TTITLE20=Real Motha Fo 'Ya
EXTD=
EXTT0=
EXTT1=
EXTT2=
EXTT3=
EXTT4=
EXTT5=
EXTT6=
EXTT7=
EXTT8=
EXTT9=
EXTT10=
EXTT11=
EXTT12=
EXTT13=
EXTT14=
EXTT15=
EXTT16=
EXTT17=
EXTT18=
EXTT19=
EXTT20=
PLAYORDER=
